<?xml version="1.0" encoding="UTF-8" standalone="no"?>
<svg width="241px" height="78px" viewBox="0 0 241 78" version="1.1" xmlns="http://www.w3.org/2000/svg" xmlns:xlink="http://www.w3.org/1999/xlink" xmlns:sketch="http://www.bohemiancoding.com/sketch/ns">
    <!-- Generator: Sketch 3.2.2 (9983) - http://www.bohemiancoding.com/sketch -->
    <title>logo-haemek-side</title>
    <desc>Created with Sketch.</desc>
    <defs>
        <rect id="path-1" x="0" y="0" width="78" height="78" rx="500"></rect>
    </defs>
    <g id="wp" stroke="none" stroke-width="1" fill="none" fill-rule="evenodd" sketch:type="MSPage">
        <g id="list" sketch:type="MSArtboardGroup" transform="translate(-760.000000, -13.000000)">
            <g id="logo-haemek-side" sketch:type="MSLayerGroup" transform="translate(760.000000, 13.000000)">
                <g id="logo" transform="translate(163.000000, 0.000000)">
                    <mask id="mask-2" sketch:name="Rectangle 7" fill="white">
                        <use xlink:href="#path-1"></use>
                    </mask>
                    <use id="Rectangle-7" fill="#21469B" sketch:type="MSShapeGroup" xlink:href="#path-1"></use>
                    <g id="Rectangle-8-+-Rectangle-9" mask="url(#mask-2)" sketch:type="MSShapeGroup">
                        <g transform="translate(-40.170000, 38.610000)">
                            <rect id="Rectangle-8" fill="#D30101" x="40.17" y="0.39" width="78" height="39"></rect>
                            <path d="M79.1264698,0.522362924 L79.1274939,0.510073069 L79.1274939,0.510073069 L79.1072493,0.524124425 L79.1264698,0.522362924 Z M79.1232597,0.560883223 L79.1191739,0.609913778 L23.1710342,57.0215661 L33.3287835,65.5449298 L79.1087461,0.735047262 L79.0878068,0.98631795 L46.0742766,72.5533789 L58.5346008,77.088566 L79.0105828,1.91300666 L72.54,79.56 L85.8,79.56 L79.2547226,1.01667124 L79.365,0.611798594 L79.365,0.611798594 L100.195399,77.088566 L112.655723,72.5533789 L79.4236894,0.51264335 L79.4236894,0.51264335 L79.4734092,0.525746147 L125.401216,65.5449298 L135.558966,57.0215661 L79.5464372,0.5449914 L79.717928,0.590184825 L145.015491,45.9117484 L151.645491,34.4282516 L80.0270694,0.671653664 L156.584365,20.8469999 L158.88694,7.78844911 L79.7361112,0.534513575 L79.4295094,0.39 L79.6227507,0.524124425 L79.5160426,0.514344941 L79.4183684,0.415861615 L79.5155613,0.0590275451 L79.3851503,0.341733782 L79.3851503,0.341733782 L79.365,0.362051038 L79.3448497,0.341733782 L79.2144387,0.0590275451 L79.3116316,0.415861615 L79.2139574,0.514344941 L79.2128704,0.514444567 L79.2078579,0.45429427 L79.3004906,0.39 L79.2062034,0.434441255 L79.17,6.92779167e-16 L79.1308363,0.469964787 L78.9938888,0.534513575 L-0.156939833,7.78844911 L2.145635,20.8469999 L78.7029306,0.671653664 L7.08450944,34.4282516 L13.7145094,45.9117484 L79.012072,0.590184825 L79.1232597,0.560883223 Z M79.3095677,0.505582549 L79.3262306,0.469460538 L79.317915,0.438930537 L79.317915,0.438930537 L79.2681527,0.509378108 L79.3095677,0.505582549 Z M79.3063106,0.51264335 L79.2270405,0.684485851 L79.2183264,0.579916368 L79.2565908,0.525746147 L79.3063106,0.51264335 Z M79.3613324,0.377465225 L79.365,0.38541584 L79.365,0.38541584 L79.3686676,0.377465225 L79.365,0.372273098 L79.3613324,0.377465225 L79.3613324,0.377465225 Z M79.3576435,0.36946844 L79.3475259,0.347535347 L79.3475259,0.347535347 L79.3607829,0.366303054 L79.3576435,0.36946844 L79.3576435,0.36946844 Z M79.3824741,0.347535347 L79.3723565,0.36946844 L79.3692171,0.366303054 L79.3824741,0.347535347 L79.3824741,0.347535347 Z M79.4037694,0.469460538 L79.4204323,0.505582549 L79.4204323,0.505582549 L79.4618473,0.509378108 L79.412085,0.438930537 L79.4037694,0.469460538 L79.4037694,0.469460538 Z" id="Rectangle-9" fill="#FFFFFF"></path>
                        </g>
                    </g>
                    <g id="Rectangle-2-+-Rectangle-3" mask="url(#mask-2)" fill="#FFFFFF" sketch:type="MSShapeGroup">
                        <g transform="translate(20.280000, 7.020000)">
                            <path d="M-0.194066986,31.9001974 L37.7385646,31.9001974 L18.7722488,-0.0289203249 L-0.194066986,31.9001974 Z" id="Rectangle-2"></path>
                            <path d="M-0.194066986,10.3162678 L37.7385646,10.3162678 L18.7722488,42.2453856 L-0.194066986,10.3162678 Z" id="Rectangle-3"></path>
                        </g>
                    </g>
                </g>
                <path d="M128.523926,29.8701172 C127.361811,29.8701172 126.33643,29.8530275 125.447754,29.8188477 C124.559078,29.7846678 123.704594,29.7163091 122.884277,29.6137695 C122.063961,29.51123 121.226567,29.3517263 120.37207,29.1352539 C119.517574,28.9187815 118.543463,28.6168639 117.449707,28.2294922 C117.814292,26.9990173 118.184568,25.7856505 118.560547,24.5893555 C118.936525,23.3930604 119.340981,22.213873 119.773926,21.0517578 C120.936041,21.3707698 121.932939,21.6214184 122.764648,21.8037109 C123.596358,21.9860035 124.393876,22.1284175 125.157227,22.230957 C125.920577,22.3334966 126.723791,22.3961587 127.566895,22.4189453 C128.409998,22.4417319 129.435378,22.453125 130.643066,22.453125 L137.95752,22.453125 C139.393074,22.453125 140.80582,22.6126286 142.195801,22.9316406 C143.585782,23.2506526 144.839024,23.8544877 145.955566,24.7431641 C147.049322,25.6090538 147.937985,26.8053309 148.621582,28.3320312 C149.305179,29.8587316 149.646973,31.8525268 149.646973,34.3134766 L149.646973,58 L140.315918,58 L140.315918,36.7060547 C140.315918,35.2932872 140.253256,34.1425826 140.12793,33.2539062 C140.002604,32.3652299 139.723472,31.6702499 139.290527,31.1689453 C138.857582,30.6676407 138.230961,30.3258473 137.410645,30.1435547 C136.590328,29.9612621 135.496589,29.8701172 134.129395,29.8701172 L128.523926,29.8701172 Z M117.791504,47.609375 C117.791504,46.6295524 117.802897,45.7351928 117.825684,44.9262695 C117.84847,44.1173462 117.888346,43.3369178 117.945312,42.5849609 C118.002279,41.8330041 118.087727,41.0924516 118.20166,40.3632812 C118.315593,39.6341109 118.475097,38.847986 118.680176,38.0048828 C120.206876,38.1643888 121.733554,38.3637683 123.260254,38.6030273 C124.786954,38.8422864 126.313632,39.155597 127.840332,39.5429688 C127.566893,40.8190168 127.378907,42.1007423 127.276367,43.3881836 C127.173828,44.6756249 127.122559,46.1624265 127.122559,47.8486328 L127.122559,58 L117.791504,58 L117.791504,47.609375 Z M98.3100586,28.2978516 C98.6290706,27.0673767 98.9708641,25.8597064 99.3354492,24.6748047 C99.7000344,23.4899029 100.076007,22.2822327 100.463379,21.0517578 L113.725098,24.5380859 C113.770671,25.335616 113.816243,26.133134 113.861816,26.9306641 C113.90739,27.7281941 113.941569,28.5257122 113.964355,29.3232422 C113.73649,31.1005948 113.428876,32.7867759 113.041504,34.3818359 C112.654132,35.976896 112.198408,37.5035734 111.674316,38.9619141 C110.71728,41.5823699 109.583665,43.9179585 108.273438,45.96875 C106.96321,48.0195415 105.504891,49.8367434 103.898438,51.4204102 C102.291984,53.0040769 100.565927,54.3883404 98.7202148,55.5732422 C96.8745025,56.7581439 94.9433695,57.8063105 92.9267578,58.7177734 C90.9101462,59.6292363 88.8252061,60.432451 86.671875,61.1274414 C84.5185439,61.8224319 82.3367624,62.4547498 80.1264648,63.0244141 L77.6655273,55.1630859 C80.0581174,54.5478485 82.2683818,53.9155306 84.2963867,53.2661133 C86.3243917,52.616696 88.1928625,51.9046263 89.9018555,51.1298828 C88.7853134,48.1676284 87.6801813,45.2225081 86.5864258,42.2944336 C85.4926703,39.3663591 84.3875381,36.4212388 83.2709961,33.4589844 C83.0203438,32.8665335 82.7981781,32.3766295 82.6044922,31.9892578 C82.4108063,31.6018861 82.2057302,31.2771823 81.9892578,31.0151367 C81.7727854,30.7530911 81.5221368,30.5366219 81.2373047,30.3657227 C80.9524725,30.1948234 80.5935894,30.0296232 80.1606445,29.8701172 L76.059082,28.1269531 C76.5831732,26.9192648 77.1243462,25.7343808 77.6826172,24.5722656 C78.2408882,23.4101504 78.8048474,22.2480527 79.3745117,21.0859375 C80.103682,21.3365898 80.8328414,21.5986314 81.5620117,21.8720703 C82.291182,22.1455092 83.0203414,22.4303371 83.7495117,22.7265625 C84.9116269,23.1822939 85.8971314,23.6380186 86.7060547,24.09375 C87.514978,24.5494814 88.1985649,25.0279923 88.7568359,25.5292969 C89.315107,26.0306015 89.7765281,26.5831676 90.1411133,27.1870117 C90.5056984,27.7908559 90.8360988,28.4687462 91.1323242,29.2207031 C91.6108422,30.4283915 92.0380841,31.5620064 92.4140625,32.621582 C92.7900409,33.6811576 93.1944965,34.848952 93.6274414,36.125 C94.0603863,37.401048 94.5559868,38.8878496 95.1142578,40.5854492 C95.6725288,42.2830489 96.3732054,44.3736855 97.2163086,46.8574219 C98.3784238,45.8320261 99.3069627,44.778163 100.001953,43.6958008 C100.696944,42.6134386 101.306475,41.4912167 101.830566,40.3291016 C102.491377,38.8251878 103.072426,37.2073654 103.57373,35.4755859 C104.075035,33.7438064 104.462401,31.920908 104.73584,30.0068359 L98.3100586,28.2978516 Z M38.3256836,25.1191406 C39.5333719,24.3216106 40.729649,23.5639684 41.9145508,22.8461914 C43.0994525,22.1284144 44.329909,21.4049516 45.605957,20.6757812 C46.1528348,21.4049516 46.6199525,22.0486626 47.0073242,22.6069336 C47.3946959,23.1652046 47.7364894,23.6892879 48.0327148,24.1791992 C48.3289403,24.6691105 48.5909819,25.1590145 48.8188477,25.6489258 C49.0467134,26.1388371 49.2745757,26.6572238 49.5024414,27.2041016 C51.4165135,25.2672429 53.4330949,23.8317104 55.5522461,22.8974609 C57.6713973,21.9632115 59.7563374,21.4960938 61.8071289,21.4960938 C63.242683,21.4960938 64.6212499,21.7125629 65.9428711,22.1455078 C67.2644923,22.5784527 68.4550728,23.205074 69.5146484,24.0253906 C70.574224,24.8457072 71.4742802,25.8539979 72.2148438,27.050293 C72.9554073,28.246588 73.4851872,29.6080653 73.8041992,31.1347656 C74.0548515,32.3652405 74.2086586,33.7608971 74.265625,35.3217773 C74.3225914,36.8826575 74.3510742,38.5859283 74.3510742,40.4316406 C74.3510742,41.2975304 74.3567708,42.2089796 74.3681641,43.1660156 C74.3795573,44.1230517 74.3852539,45.2737563 74.3852539,46.6181641 C74.3852539,48.1904375 74.3567711,49.6943288 74.2998047,51.1298828 C74.2428383,52.5654369 74.1801761,53.761714 74.1118164,54.71875 C74.0662433,55.2200546 74.0206708,55.7441379 73.9750977,56.2910156 C73.9295245,56.8378934 73.8611658,57.4075491 73.7700195,58 L55.8256836,58 L55.8256836,50.5830078 L64.9516602,50.5830078 C64.9744467,50.4462884 64.9915364,50.2013364 65.0029297,49.8481445 C65.014323,49.4949527 65.0257161,48.9708694 65.0371094,48.2758789 C65.0485027,47.5808885 65.0541992,46.6865289 65.0541992,45.5927734 L65.0541992,41.5253906 C65.0541992,41.0696592 65.0598958,40.5057 65.0712891,39.8334961 C65.0826823,39.1612922 65.0883789,38.4606156 65.0883789,37.7314453 C65.0883789,37.002275 65.0769858,36.307295 65.0541992,35.6464844 C65.0314126,34.9856738 64.9972333,34.4388042 64.9516602,34.0058594 C64.7010079,32.160147 64.1541383,30.8499388 63.3110352,30.0751953 C62.467932,29.3004519 61.2602618,28.9130859 59.6879883,28.9130859 C58.8220985,28.9130859 57.9562218,29.0782861 57.090332,29.4086914 C56.2244423,29.7390967 55.3243862,30.2233041 54.3901367,30.8613281 C53.8660456,31.2259133 53.3590519,31.6303689 52.8691406,32.074707 C52.3792293,32.5190452 51.8950219,33.0260388 51.4165039,33.5957031 C51.0291322,36.1250126 50.6987318,38.3010977 50.425293,40.1240234 C50.1518541,41.9469492 49.9125987,43.5419854 49.7075195,44.9091797 C49.5024404,46.276374 49.3201505,47.4783477 49.1606445,48.5151367 C49.0011385,49.5519258 48.8473315,50.565913 48.6992188,51.5571289 C48.551106,52.5483448 48.397299,53.5737252 48.237793,54.6333008 C48.078287,55.6928764 47.8959971,56.9176363 47.690918,58.3076172 L38.394043,58.3076172 L39.2827148,52.2919922 C39.487794,50.8336516 39.6928701,49.4493881 39.8979492,48.1391602 C40.1030284,46.8289323 40.3081044,45.5244206 40.5131836,44.2255859 C40.7182627,42.9267513 40.9290354,41.6165431 41.1455078,40.2949219 C41.3619802,38.9733007 41.5955391,37.5605544 41.8461914,36.0566406 C41.8917646,35.6464823 41.9259439,35.2705095 41.9487305,34.9287109 C41.971517,34.5869124 41.9829102,34.256512 41.9829102,33.9375 C41.9829102,33.299476 41.9373377,32.7298202 41.8461914,32.2285156 C41.7550451,31.727211 41.6183277,31.2430036 41.4360352,30.7758789 C41.2537426,30.3087542 41.0315768,29.8359399 40.7695312,29.3574219 C40.5074857,28.8789039 40.2055681,28.3434274 39.8637695,27.7509766 L38.3256836,25.1191406 Z M11.324707,29.8701172 C10.1625918,29.8701172 9.13721147,29.8530275 8.24853516,29.8188477 C7.35985884,29.7846678 6.5053752,29.7163091 5.68505859,29.6137695 C4.86474199,29.51123 4.02734802,29.3517263 3.17285156,29.1352539 C2.3183551,28.9187815 1.34424375,28.6168639 0.250488281,28.2294922 C0.615073438,26.9990173 0.985349683,25.7856505 1.36132812,24.5893555 C1.73730657,23.3930604 2.14176216,22.213873 2.57470703,21.0517578 C3.64567593,21.3479833 4.56851826,21.5815421 5.34326172,21.7524414 C6.11800518,21.9233407 6.85855767,22.0600581 7.56494141,22.1625977 C8.27132515,22.2651372 8.98909141,22.3334959 9.71826172,22.3676758 C10.447432,22.4018556 11.3133088,22.4189453 12.315918,22.4189453 L13.4438477,22.4189453 L33.7807617,22.4189453 C33.8946946,22.8291036 33.9972326,23.2050764 34.0883789,23.546875 C34.1795252,23.8886736 34.259277,24.2190739 34.3276367,24.5380859 C34.4643562,25.1533234 34.5498045,25.7172826 34.5839844,26.2299805 C34.6181642,26.7426783 34.6352539,27.3408169 34.6352539,28.0244141 L34.6352539,35.4414062 C34.6352539,36.7174543 34.5555021,37.8966417 34.3959961,38.9790039 C34.2364901,40.0613661 34.0029312,41.0867465 33.6953125,42.0551758 C33.3876938,43.0236051 32.9889347,43.9635371 32.4990234,44.875 C32.0091121,45.7864629 31.4451529,46.7093052 30.8071289,47.6435547 C30.2830377,48.4638713 29.5880577,49.420893 28.722168,50.5146484 C27.8562782,51.6084039 26.9334359,52.7363223 25.9536133,53.8984375 C24.9737907,55.0605527 23.9939828,56.1884711 23.0141602,57.2822266 C22.0343375,58.375982 21.1684608,59.3330037 20.4165039,60.1533203 L13.7856445,54.5136719 L18.3999023,49.2841797 C19.5620175,47.9853451 20.5361289,46.8631232 21.3222656,45.9174805 C22.1084024,44.9718377 22.7635065,44.1002644 23.2875977,43.3027344 C23.7205425,42.6647104 24.0680325,42.0665718 24.3300781,41.5083008 C24.5921237,40.9500298 24.7971998,40.3860706 24.9453125,39.8164062 C25.0934252,39.2467419 25.1959633,38.6543 25.2529297,38.0390625 C25.3098961,37.423825 25.3383789,36.7402381 25.3383789,35.9882812 L25.3383789,29.8701172 L11.324707,29.8701172 Z M0.626464844,47.609375 C0.626464844,46.6295524 0.637857959,45.7351928 0.660644531,44.9262695 C0.683431104,44.1173462 0.723307007,43.3369178 0.780273438,42.5849609 C0.837239868,41.8330041 0.922688232,41.0924516 1.03662109,40.3632812 C1.15055396,39.6341109 1.31005757,38.847986 1.51513672,38.0048828 C3.04183706,38.1643888 4.5685145,38.3637683 6.09521484,38.6030273 C7.62191519,38.8422864 9.14859263,39.155597 10.675293,39.5429688 C10.4018541,40.8190168 10.2138677,42.1007423 10.1113281,43.3881836 C10.0087885,44.6756249 9.95751953,46.1624265 9.95751953,47.8486328 L9.95751953,68.7666016 L0.626464844,68.7666016 L0.626464844,47.609375 Z" id="העמק" fill="#22479B" sketch:type="MSShapeGroup"></path>
            </g>
        </g>
    </g>
</svg>